<svg width="256px" height="256px" viewBox="0 0 256 256" xmlns="http://www.w3.org/2000/svg"><defs><style>.cls-1{fill:#ffe76e;}.cls-2{fill:#2fb1ea;}.cls-3{fill:#6dd0fc;}.cls-4{fill:#a4ecff;}.cls-5{fill:#d4ffd4;}.cls-6{fill:#ffbdbd;}.cls-7{fill:#bbf1ff;}.cls-8{fill:#fff4c5;}</style></defs><title>business economic finance interprise company graph</title><g id="Layer_2" data-name="Layer 2"><rect class="cls-1" x="99.14" y="5.22" width="14.09" height="91.64" rx="7.04" ry="7.04" transform="translate(157.22 -55.14) rotate(90)"/><rect class="cls-1" x="83.57" y="41.11" width="14.09" height="60.51" rx="7.04" ry="7.04" transform="translate(161.98 -19.25) rotate(90)"/><rect class="cls-1" x="77.76" y="67.24" width="14.09" height="48.89" rx="7.04" ry="7.04" transform="translate(176.49 6.88) rotate(90)"/><rect class="cls-1" x="94.65" y="70.67" width="14.09" height="82.67" rx="7.04" ry="7.04" transform="translate(213.7 10.31) rotate(90)"/><path class="cls-2" d="M44,234a2,2,0,0,1-2-2V24a2,2,0,0,1,4,0V232A2,2,0,0,1,44,234Z"/><polygon class="cls-3" points="50 212 76 173.33 102 160.33 128 171.62 154 135.64 180 138.67 206 70 206 212 50 212"/><polygon class="cls-4" points="125 183.14 151 194.43 177 158.45 203 161.48 206 153.55 206 70 180 138.67 154 135.64 128 171.62 102 160.33 76 173.33 58.61 199.19 96.98 199.14 99 196.14 125 183.14"/><path class="cls-2" d="M206,214H50a2,2,0,0,1-1.66-3.12l26-38.67a2,2,0,0,1,.77-.67l26-13a2,2,0,0,1,1.69,0l24.52,10.65,25.06-34.68a2,2,0,0,1,1.85-.81l24.45,2.85,25.45-67.21A2,2,0,0,1,208,70V212A2,2,0,0,1,206,214ZM53.75,210H204V80.93l-22.13,58.44a2,2,0,0,1-2.1,1.28l-24.83-2.89-25.31,35a2,2,0,0,1-2.42.66l-25.14-10.92L77.37,174.89Z"/><path class="cls-2" d="M232,214H24a2,2,0,0,1,0-4H232a2,2,0,0,1,0,4Z"/><circle class="cls-5" cx="207" cy="232" r="5"/><circle class="cls-5" cx="29" cy="167" r="4"/><circle class="cls-5" cx="173" cy="89" r="3"/><circle class="cls-5" cx="104" cy="136" r="2"/><circle class="cls-5" cx="29" cy="230" r="1"/><circle class="cls-6" cx="7" cy="190" r="5"/><circle class="cls-6" cx="200" cy="31" r="4"/><circle class="cls-6" cx="30" cy="87" r="3"/><circle class="cls-6" cx="225" cy="74" r="2"/><circle class="cls-6" cx="237" cy="111" r="1"/><circle class="cls-7" cx="151" cy="24" r="5"/><circle class="cls-7" cx="22" cy="131" r="4"/><circle class="cls-7" cx="143" cy="223" r="3"/><circle class="cls-7" cx="165" cy="102" r="2"/><circle class="cls-7" cx="28" cy="52" r="1"/><circle class="cls-8" cx="249" cy="176" r="5"/><circle class="cls-8" cx="219" cy="102" r="4"/><circle class="cls-8" cx="97" cy="35" r="3"/><circle class="cls-8" cx="74" cy="153" r="2"/><circle class="cls-8" cx="98" cy="233" r="1"/></g></svg>